<svg width="500" height="530" viewBox="0 0 500 530" fill="none" xmlns="http://www.w3.org/2000/svg">
<path d="M500 265C500 403.071 388.071 515 250 515C111.929 515 0 403.071 0 265C0 126.929 111.929 15 250 15C388.071 15 500 126.929 500 265ZM18.264 265C18.264 392.984 122.016 496.736 250 496.736C377.984 496.736 481.736 392.984 481.736 265C481.736 137.016 377.984 33.264 250 33.264C122.016 33.264 18.264 137.016 18.264 265Z" fill="#A43F49"/>
<path d="M316.744 335.133H182.115L151.879 419H108.18L230.891 97.6562H267.969L390.9 419H347.422L316.744 335.133ZM194.916 300.262H304.164L249.43 149.963L194.916 300.262Z" fill="#A43F49"/>
</svg>
